<svg xmlns="http://www.w3.org/2000/svg" xmlns:xlink="http://www.w3.org/1999/xlink" fill="none" version="1.1" width="15.75" height="14" viewBox="0 0 15.75 14"><defs><clipPath id="master_svg0_58_23370"><rect x="0" y="0" width="15.75" height="14" rx="0"/></clipPath></defs><g clip-path="url(#master_svg0_58_23370)"><g transform="matrix(1,0,0,-1,0,28.6015625)"><g><path d="M8.85577,18.26562125Q10.0962,18.45703125,10.8173,19.44141125L15.4615,26.277381249999998Q15.75,26.687481249999998,15.6923,27.152381249999998Q15.6058,27.61718125,15.2596,27.94528125Q14.8558,28.27348125,14.3654,28.30078125Q13.9038,28.32808125,13.4712,28.027381249999998L6.63462,23.18750125Q5.56731,22.39453125,5.53846,21.10937125L8.85577,18.26562125ZM8.30769,17.55469125L4.96154,20.42578125L8.30769,17.55469125L4.96154,20.42578125Q3.63462,20.34375125,2.74038,19.49609125Q1.875,18.62109125,1.84615,17.36328125Q1.84615,17.19922125,1.875,17.03516125Q1.90385,16.67969125,1.67308,16.37890125Q1.44231,16.07812125,1.06731,16.05078125L0.923077,16.05078125Q0.519231,16.05078125,0.259615,15.80469125Q0,15.55859125,0,15.17578125Q0,14.79296925,0.259615,14.54687525Q0.519231,14.30078125,0.923077,14.30078125L5.07692,14.30078125Q6.46154,14.32812505,7.35577,15.20312525Q8.27885,16.05078125,8.30769,17.36328125Q8.30769,17.41797125,8.30769,17.47266125Q8.30769,17.52734125,8.30769,17.55469125Z" fill="#1B9AF5" fill-opacity="1" style="mix-blend-mode:passthrough"/></g></g></g></svg>